<svg width="332" height="216" viewBox="0 0 332 216" fill="none" xmlns="http://www.w3.org/2000/svg">
  <path
    d="M0 12C0 5.37258 5.37258 0 12 0H320C326.627 0 332 5.37258 332 12V175.751C332 182.378 326.627 187.751 320 187.751H204.239C201.496 187.751 198.836 188.69 196.702 190.413L172.762 209.735C168.263 213.366 161.814 213.273 157.422 209.513L135.369 190.634C133.195 188.773 130.427 187.751 127.565 187.751H12C5.37258 187.751 0 182.378 0 175.751V12Z"
    fill="#E9F4FE"
  />
  <path d="M239 56H305V116.985L296.558 131H239V56Z" fill="#DB3757" />
  <path
    d="M253.52 87.72H259.82C260.833 87.72 261.66 87.8667 262.3 88.16C262.94 88.4533 263.433 88.82 263.78 89.26C264.127 89.7 264.36 90.18 264.48 90.7C264.613 91.22 264.68 91.7 264.68 92.14C264.68 92.58 264.613 93.06 264.48 93.58C264.36 94.0867 264.127 94.56 263.78 95C263.433 95.44 262.94 95.8067 262.3 96.1C261.66 96.38 260.833 96.52 259.82 96.52H256.02V102H253.52V87.72ZM256.02 94.48H259.68C259.96 94.48 260.247 94.44 260.54 94.36C260.833 94.28 261.1 94.1533 261.34 93.98C261.593 93.7933 261.793 93.5533 261.94 93.26C262.1 92.9533 262.18 92.5733 262.18 92.12C262.18 91.6533 262.113 91.2667 261.98 90.96C261.847 90.6533 261.667 90.4133 261.44 90.24C261.213 90.0533 260.953 89.9267 260.66 89.86C260.367 89.7933 260.053 89.76 259.72 89.76H256.02V94.48ZM266.86 87.72H272.78C273.873 87.72 274.82 87.9067 275.62 88.28C276.42 88.6533 277.073 89.1667 277.58 89.82C278.087 90.46 278.46 91.2133 278.7 92.08C278.953 92.9467 279.08 93.8733 279.08 94.86C279.08 95.8467 278.953 96.7733 278.7 97.64C278.46 98.5067 278.087 99.2667 277.58 99.92C277.073 100.56 276.42 101.067 275.62 101.44C274.82 101.813 273.873 102 272.78 102H266.86V87.72ZM269.36 99.96H271.82C272.793 99.96 273.587 99.8333 274.2 99.58C274.827 99.3133 275.313 98.9533 275.66 98.5C276.02 98.0333 276.26 97.4933 276.38 96.88C276.513 96.2533 276.58 95.58 276.58 94.86C276.58 94.14 276.513 93.4733 276.38 92.86C276.26 92.2333 276.02 91.6933 275.66 91.24C275.313 90.7733 274.827 90.4133 274.2 90.16C273.587 89.8933 272.793 89.76 271.82 89.76H269.36V99.96ZM281.293 87.72H291.153V89.88H283.793V93.62H290.253V95.66H283.793V102H281.293V87.72Z"
    fill="white"
  />
  <circle cx="61" cy="64" r="30" fill="#757EF2" />
  <rect x="31" y="116" width="59" height="10" rx="5" fill="#282750" />
  <rect x="31" y="138" width="97" height="9" rx="4.5" fill="#486581" />
  <path d="M153 56H219V116.985L210.558 131H153V56Z" fill="#DB3757" />
  <path
    d="M167.52 87.72H173.82C174.833 87.72 175.66 87.8667 176.3 88.16C176.94 88.4533 177.433 88.82 177.78 89.26C178.127 89.7 178.36 90.18 178.48 90.7C178.613 91.22 178.68 91.7 178.68 92.14C178.68 92.58 178.613 93.06 178.48 93.58C178.36 94.0867 178.127 94.56 177.78 95C177.433 95.44 176.94 95.8067 176.3 96.1C175.66 96.38 174.833 96.52 173.82 96.52H170.02V102H167.52V87.72ZM170.02 94.48H173.68C173.96 94.48 174.247 94.44 174.54 94.36C174.833 94.28 175.1 94.1533 175.34 93.98C175.593 93.7933 175.793 93.5533 175.94 93.26C176.1 92.9533 176.18 92.5733 176.18 92.12C176.18 91.6533 176.113 91.2667 175.98 90.96C175.847 90.6533 175.667 90.4133 175.44 90.24C175.213 90.0533 174.953 89.9267 174.66 89.86C174.367 89.7933 174.053 89.76 173.72 89.76H170.02V94.48ZM180.86 87.72H186.78C187.873 87.72 188.82 87.9067 189.62 88.28C190.42 88.6533 191.073 89.1667 191.58 89.82C192.087 90.46 192.46 91.2133 192.7 92.08C192.953 92.9467 193.08 93.8733 193.08 94.86C193.08 95.8467 192.953 96.7733 192.7 97.64C192.46 98.5067 192.087 99.2667 191.58 99.92C191.073 100.56 190.42 101.067 189.62 101.44C188.82 101.813 187.873 102 186.78 102H180.86V87.72ZM183.36 99.96H185.82C186.793 99.96 187.587 99.8333 188.2 99.58C188.827 99.3133 189.313 98.9533 189.66 98.5C190.02 98.0333 190.26 97.4933 190.38 96.88C190.513 96.2533 190.58 95.58 190.58 94.86C190.58 94.14 190.513 93.4733 190.38 92.86C190.26 92.2333 190.02 91.6933 189.66 91.24C189.313 90.7733 188.827 90.4133 188.2 90.16C187.587 89.8933 186.793 89.76 185.82 89.76H183.36V99.96ZM195.293 87.72H205.153V89.88H197.793V93.62H204.253V95.66H197.793V102H195.293V87.72Z"
    fill="white"
  />
</svg>