<svg width="35" height="35" viewBox="0 0 35 35" fill="none" xmlns="http://www.w3.org/2000/svg">
<path d="M7.29168 14.5833V13.8333C6.87746 13.8333 6.54168 14.1691 6.54168 14.5833H7.29168ZM27.7083 14.5833H28.4583C28.4583 14.1691 28.1226 13.8333 27.7083 13.8333V14.5833ZM27.7083 29.1667V29.9167C28.1226 29.9167 28.4583 29.5809 28.4583 29.1667H27.7083ZM7.29168 29.1667H6.54168C6.54168 29.5809 6.87746 29.9167 7.29168 29.9167V29.1667ZM20.4167 29.1667V29.9167C20.8309 29.9167 21.1667 29.5809 21.1667 29.1667H20.4167ZM14.5833 29.1667H13.8333C13.8333 29.5809 14.1691 29.9167 14.5833 29.9167V29.1667ZM5.83334 10.2083V9.45834C5.41913 9.45834 5.08334 9.79413 5.08334 10.2083H5.83334ZM29.1667 10.2083H29.9167C29.9167 9.79413 29.5809 9.45834 29.1667 9.45834V10.2083ZM29.1667 14.5833V15.3333C29.5809 15.3333 29.9167 14.9976 29.9167 14.5833H29.1667ZM5.83334 14.5833H5.08334C5.08334 14.9976 5.41913 15.3333 5.83334 15.3333V14.5833ZM14.5833 10.2083V9.45834C14.1691 9.45834 13.8333 9.79413 13.8333 10.2083H14.5833ZM20.4167 10.2083H21.1667C21.1667 9.79413 20.8309 9.45834 20.4167 9.45834V10.2083ZM17.3045 9.98956L16.58 9.79541L16.3859 10.5198L17.1103 10.714L17.3045 9.98956ZM24.8822 5.61455L25.5317 5.23955L24.8822 5.61455ZM17.5909 9.98956L17.785 10.714L18.5095 10.5198L18.3153 9.79541L17.5909 9.98956ZM10.0132 5.61455L9.36365 5.23955L10.0132 5.61455ZM7.29168 15.3333H27.7083V13.8333H7.29168V15.3333ZM26.9583 14.5833V29.1667H28.4583V14.5833H26.9583ZM27.7083 28.4167H7.29168V29.9167H27.7083V28.4167ZM8.04168 29.1667V14.5833H6.54168V29.1667H8.04168ZM14.5833 15.3333H20.4167V13.8333H14.5833V15.3333ZM19.6667 14.5833V29.1667H21.1667V14.5833H19.6667ZM20.4167 28.4167H14.5833V29.9167H20.4167V28.4167ZM15.3333 29.1667V14.5833H13.8333V29.1667H15.3333ZM5.83334 10.9583H29.1667V9.45834H5.83334V10.9583ZM28.4167 10.2083V14.5833H29.9167V10.2083H28.4167ZM29.1667 13.8333H5.83334V15.3333H29.1667V13.8333ZM6.58334 14.5833V10.2083H5.08334V14.5833H6.58334ZM14.5833 10.9583H20.4167V9.45834H14.5833V10.9583ZM19.6667 10.2083V14.5833H21.1667V10.2083H19.6667ZM15.3333 14.5833V10.2083H13.8333V14.5833H15.3333ZM18.0289 10.1837C18.3833 8.86129 19.6305 6.95427 21.0364 5.85067C21.7395 5.29872 22.3803 5.02891 22.887 5.02951C23.3199 5.03002 23.7926 5.22737 24.2327 5.98955L25.5317 5.23955C24.878 4.10728 23.9567 3.53077 22.8888 3.52951C21.8947 3.52834 20.9279 4.02885 20.1102 4.67077C18.4743 5.9549 17.0264 8.12984 16.58 9.79541L18.0289 10.1837ZM24.2327 5.98955C24.6727 6.7518 24.6073 7.25994 24.3913 7.6351C24.1385 8.07425 23.5845 8.4943 22.7549 8.82727C21.0963 9.49303 18.8211 9.61957 17.4986 9.26512L17.1103 10.714C18.7761 11.1604 21.3836 10.994 23.3137 10.2193C24.2785 9.83207 25.1953 9.24502 25.6913 8.3835C26.2241 7.45797 26.1854 6.37186 25.5317 5.23955L24.2327 5.98955ZM18.3153 9.79541C17.8689 8.12984 16.421 5.9549 14.7852 4.67077C13.9674 4.02885 13.0006 3.52834 12.0066 3.52951C10.9386 3.53077 10.0174 4.10728 9.36365 5.23955L10.6627 5.98955C11.1027 5.22737 11.5755 5.03002 12.0083 5.02951C12.515 5.02891 13.1558 5.29872 13.859 5.85067C15.2649 6.95427 16.512 8.86129 16.8665 10.1837L18.3153 9.79541ZM9.36365 5.23955C8.70992 6.37186 8.67124 7.45797 9.20407 8.3835C9.70006 9.24502 10.6169 9.83207 11.5817 10.2193C13.5117 10.994 16.1193 11.1604 17.785 10.714L17.3967 9.26512C16.0742 9.61957 13.7991 9.49303 12.1404 8.82727C11.3109 8.4943 10.7569 8.07425 10.504 7.6351C10.2881 7.25994 10.2226 6.7518 10.6627 5.98955L9.36365 5.23955Z" fill="#636682"/>
</svg>
