<svg width="51" height="57" viewBox="0 0 51 57" fill="none" xmlns="http://www.w3.org/2000/svg">
<path d="M0 0H50.1599V46.3484L43.7441 56.9999H0V0Z" fill="#DB3757"/>
<path d="M14.0941 31.76V23.0327H17.043C17.7276 23.0327 18.2873 23.1563 18.7219 23.4035C19.1594 23.6478 19.4833 23.9788 19.6935 24.3964C19.9038 24.814 20.0089 25.2799 20.0089 25.7941C20.0089 26.3083 19.9038 26.7756 19.6935 27.1961C19.4861 27.6165 19.1651 27.9518 18.7305 28.2018C18.2958 28.4489 17.739 28.5725 17.06 28.5725H14.9464V27.635H17.0259C17.4947 27.635 17.8711 27.554 18.1552 27.3921C18.4393 27.2302 18.6452 27.0114 18.7731 26.7359C18.9038 26.4575 18.9691 26.1435 18.9691 25.7941C18.9691 25.4447 18.9038 25.1322 18.7731 24.8566C18.6452 24.581 18.4378 24.3651 18.1509 24.2089C17.864 24.0498 17.4833 23.9702 17.0089 23.9702H15.1509V31.76H14.0941ZM24.8045 31.76H22.1113V23.0327H24.9238C25.7704 23.0327 26.4948 23.2075 27.0971 23.5569C27.6994 23.9035 28.161 24.4021 28.482 25.0526C28.803 25.7004 28.9636 26.4759 28.9636 27.3793C28.9636 28.2884 28.8016 29.0711 28.4778 29.7273C28.1539 30.3807 27.6823 30.8836 27.063 31.2359C26.4437 31.5853 25.6908 31.76 24.8045 31.76ZM23.1681 30.8225H24.7363C25.4579 30.8225 26.0559 30.6833 26.5303 30.4049C27.0047 30.1265 27.3584 29.7302 27.5914 29.216C27.8244 28.7018 27.9408 28.0896 27.9408 27.3793C27.9408 26.6748 27.8258 26.0682 27.5957 25.5597C27.3655 25.0484 27.0218 24.6563 26.5644 24.3836C26.107 24.108 25.5374 23.9702 24.8556 23.9702H23.1681V30.8225ZM31.1363 31.76V23.0327H36.3692V23.9702H32.1931V26.9191H35.9772V27.8566H32.1931V31.76H31.1363Z" fill="white"/>
</svg>
