<svg width="35" height="35" viewBox="0 0 35 35" fill="none" xmlns="http://www.w3.org/2000/svg">
<path d="M26.2499 27.7084V26.2501C26.2499 23.0284 23.6382 20.4167 20.4166 20.4167H14.5833C11.3616 20.4167 8.74992 23.0284 8.74992 26.2501V27.7084M33.5416 27.7084V26.2501C33.5416 23.0284 30.9299 20.4167 27.7083 20.4167H26.9791M1.45825 27.7084V26.2501C1.45825 23.0284 4.06992 20.4167 7.29159 20.4167H8.02075M24.7916 16.0417C27.2078 16.0417 29.1666 14.083 29.1666 11.6667C29.1666 9.2505 27.2078 7.29175 24.7916 7.29175M10.2083 16.0417C7.79201 16.0417 5.83325 14.083 5.83325 11.6667C5.83325 9.2505 7.79201 7.29175 10.2083 7.29175M21.8749 11.6667C21.8749 14.083 19.9162 16.0417 17.4999 16.0417C15.0837 16.0417 13.1249 14.083 13.1249 11.6667C13.1249 9.2505 15.0837 7.29175 17.4999 7.29175C19.9162 7.29175 21.8749 9.2505 21.8749 11.6667Z" stroke="currentColor" stroke-width="1.5" stroke-linecap="round" stroke-linejoin="round"/>
</svg>
